<mxfile host="app.diagrams.net" modified="2023-10-12T09:28:40.772Z" agent="Mozilla/5.0 (X11; Linux x86_64; rv:109.0) Gecko/20100101 Firefox/118.0" etag="4SK2drY6fVxEcmYp6wM3" version="22.0.4" type="device">
  <diagram id="C5RBs43oDa-KdzZeNtuy" name="Page-1">
    <mxGraphModel dx="773" dy="428" grid="1" gridSize="10" guides="1" tooltips="1" connect="1" arrows="1" fold="1" page="1" pageScale="1" pageWidth="827" pageHeight="1169" math="0" shadow="0">
      <root>
        <mxCell id="WIyWlLk6GJQsqaUBKTNV-0" />
        <mxCell id="WIyWlLk6GJQsqaUBKTNV-1" parent="WIyWlLk6GJQsqaUBKTNV-0" />
        <mxCell id="ObIRiXvEaIVMOrZ5Soeb-3" value="" style="edgeStyle=orthogonalEdgeStyle;rounded=0;orthogonalLoop=1;jettySize=auto;html=1;" edge="1" parent="WIyWlLk6GJQsqaUBKTNV-1" source="ObIRiXvEaIVMOrZ5Soeb-0" target="ObIRiXvEaIVMOrZ5Soeb-2">
          <mxGeometry relative="1" as="geometry" />
        </mxCell>
        <mxCell id="ObIRiXvEaIVMOrZ5Soeb-0" value="Femur Echographic Image" style="rounded=1;whiteSpace=wrap;html=1;" vertex="1" parent="WIyWlLk6GJQsqaUBKTNV-1">
          <mxGeometry x="150" y="210" width="120" height="60" as="geometry" />
        </mxCell>
        <mxCell id="ObIRiXvEaIVMOrZ5Soeb-5" value="" style="edgeStyle=orthogonalEdgeStyle;rounded=0;orthogonalLoop=1;jettySize=auto;html=1;" edge="1" parent="WIyWlLk6GJQsqaUBKTNV-1" source="ObIRiXvEaIVMOrZ5Soeb-2" target="ObIRiXvEaIVMOrZ5Soeb-4">
          <mxGeometry relative="1" as="geometry" />
        </mxCell>
        <mxCell id="ObIRiXvEaIVMOrZ5Soeb-2" value="UNET" style="rounded=1;whiteSpace=wrap;html=1;" vertex="1" parent="WIyWlLk6GJQsqaUBKTNV-1">
          <mxGeometry x="320" y="210" width="120" height="60" as="geometry" />
        </mxCell>
        <mxCell id="ObIRiXvEaIVMOrZ5Soeb-4" value=" Segmantation Mask" style="rounded=1;whiteSpace=wrap;html=1;" vertex="1" parent="WIyWlLk6GJQsqaUBKTNV-1">
          <mxGeometry x="480" y="210" width="120" height="60" as="geometry" />
        </mxCell>
      </root>
    </mxGraphModel>
  </diagram>
</mxfile>
